# xmcd
#
# Track frame offsets: 
#        150
#        12253
#        31022
#        53146
#        66812
#        83273
#        100732
#        117072
#        131138
#        145411
#        160431
#        176439
#        196823
#        213023
#        229893
#        247428
#        276301
#
# Disc length: 3840 seconds
#
# Revision: 0
# Processed by: cddbd v1.5.2PL0 Copyright (c) Steve Scherf et al.
# Submitted via: ExactAudioCopy v0.99pb5
#
DISCID=e80efe11
DTITLE=Faith Evans - Something About Faith
DYEAR=2010
DGENRE=R&B
TTITLE0=Something about faith (Intro)
TTITLE1=I still
TTITLE2=Way you move feat. Snoop Dogg
TTITLE3=Real things
TTITLE4=Worth it
TTITLE5=Gone already
TTITLE6=Party feat. Redman
TTITLE7=Right here
TTITLE8=Your lover
TTITLE9=Can¡¦t stay away feat. Keyshia Cole
TTITLE10=Sunshine
TTITLE11=Everyday struggle feat. Raekwon
TTITLE12=The love in me
TTITLE13=Change
TTITLE14=Troubled world feat. Kelly Price and Jessica Reedy
TTITLE15=Baby lay
TTITLE16=Video - Gone Already
EXTD=
EXTT0=
EXTT1=
EXTT2=
EXTT3=
EXTT4=
EXTT5=
EXTT6=
EXTT7=
EXTT8=
EXTT9=
EXTT10=
EXTT11=
EXTT12=
EXTT13=
EXTT14=
EXTT15=
EXTT16=
PLAYORDER=
